<?xml version="1.0" encoding="utf-8"?>
<!-- Generator: Adobe Illustrator 25.2.1, SVG Export Plug-In . SVG Version: 6.00 Build 0)  -->
<svg version="1.1" id="Layer_1" xmlns="http://www.w3.org/2000/svg" xmlns:xlink="http://www.w3.org/1999/xlink" x="0px" y="0px"
	 viewBox="0 0 800 800" style="enable-background:new 0 0 800 800;" xml:space="preserve">
<style type="text/css">
	.st0{fill:#FFFFFF;}
</style>
<g>
	<path class="st0" d="M19.8,495.9c5.5-49.3,32.5-85.8,69.7-116.1c2.4,1.7,3.6,3.6,3.3,6.2c-1.2,7.9-2.6,15.8-3.8,23.6
		c-1.2,8.7-2.4,17.5-3.1,26.2c-1,12.3-1.7,24.7-2.6,37c0,0.7,0,1.4,0,2.1c0.3,0.3,0.7,0.5,1,0.9c0.5-0.9,0.7-1.9,1.4-2.6
		c9.4-10.4,19.2-20.7,28.4-31.3c11.8-13.5,26.4-23.5,41.4-32.5c4.3-2.6,8.9-5,12.8-7.2c-1.7,8.7-3.4,17.6-5.1,26.5
		c-1.7,8.9-3.1,17.8-4.8,27.4c1.5-1,2.4-1.5,3.3-2.1c11.3-7.7,22.4-15.8,33.7-23.3c10.3-6.8,21.6-7,33.6-4.1
		c-3.4,3.8-6.5,7.2-9.6,10.8c-16.1,18.7-28.6,39.6-36.5,63c-5.7,17-8.4,34.6-7.2,52.4c1.9,27.2,11.1,51.4,32,70
		c13.4,11.8,28.9,18.2,46.7,19.7s33.9-3.6,49.1-12.2c19.5-11,35.6-26,49.7-43.5c6.5-8,12-16.8,18-25.2c0.5-0.7,1-1.4,1.7-2.2
		c7.5,6.2,14.9,12,22.1,18c12.8,10.8,25.5,21.6,38.2,32.4c4.5,3.8,4.3,3.9,1.7,9.1c-15.2,28.9-33.2,55.7-56.8,78.4
		c-27.4,26.5-59.4,44.9-96.9,53.3c-17.6,3.9-35.4,5.7-53.4,5c-37.5-1.5-71.6-13.7-101.7-36.1c-12.8-9.6-23.3-21.9-33-34.6
		c-1.4-1.7-2.7-3.4-4.5-5c-4.3-3.8-9.2-2.2-10.1,3.4c-0.7,3.9-0.5,8.2,0.2,12.2c0.9,5,2.6,9.9,3.9,14.9c0.2,0.7,0.3,1.4,0.5,1.9
		c-0.2,0.2-0.3,0.3-0.5,0.3c-4.6-5.1-9.4-10.1-13.9-15.4c-20.9-25.2-33.4-54.1-38.4-86.3c-5.8-38.4-1.5-75.9,10.3-112.7
		c1.4-4.1,2.2-8.4,2.4-12.7c0.3-4.5-3.3-6.8-7-4.5c-4.3,2.6-8,6.2-11.8,9.4C22.7,492,21.3,494,19.8,495.9z"/>
	<path class="st0" d="M305.7,399c0.3,2.6,0.5,5.3,1.2,7.7c2.6,9.2,9.4,14.6,17.8,18.2c7.2,3.1,14.9,3.4,22.6,4.5
		c5.7,0.7,11.1,1.7,16.6,3.4c7.4,2.2,11.1,8.2,13,15.4c1.2,5,2.1,10.1,3.3,15.1c0.3,1.4,0.7,2.6,1,3.8c2.2,7,7,10.4,14.2,10.8
		c7,0.5,14.2,0.9,21.2,1.5c9.8,0.9,18.5,4.6,26,11c28.8,23.8,57.5,47.4,86.3,71.2c6.8,5.7,14.4,9.9,23.1,11.5
		c19.5,3.4,38-9.9,40.9-29.5c0.9-6,0.5-11.6-1-17.5c-0.2-0.7-0.3-1.4-0.5-2.4c6.2,3.6,11.1,7.9,15.2,13.4
		c15.8,21.4,19.5,44.9,10.8,70c-2.7,7.9-7.7,14.6-14.4,19.7c-0.3,0.3-0.7,0.5-1.2,0.7c0,0.3,0.2,0.7,0.2,1c4.6,0.5,9.4,1.2,14,1.2
		c13.7,0.2,26.9-2.4,39.2-8.6c13.2-6.5,22.9-16.1,26.4-31c4.1-18.7-2.4-33.7-16.6-45.7c-3.1-2.6-6.3-4.8-9.9-6.7
		c-3.4-1.9-7.2-3.1-10.8-5.1c7.5,0.3,15.1,0.2,22.6,1c20.9,2.6,39.6,10.4,55.5,24.1c16.6,14.4,27.4,32.2,30.3,54.1
		c3.4,26.5-4.6,49.7-22.9,69c-17.6,18.7-39.6,28.9-64.9,31.3c-8.2,0.9-16.6,0-25,0c-0.5,0-1.2,0-1.9,0.3
		c9.9,8.7,21.9,13.4,34.4,16.3c12.7,2.9,25.3,3.8,38.5-0.9c-3.1,5-6.7,8.7-10.8,12c-13.9,11.3-29.6,18.7-46.9,23.3
		c-23.5,6.3-46.9,7-70-1.2c-25.5-9.1-43.3-26.5-55-50.5c-5.7-11.5-9.2-23.5-9.9-36.1c0-0.2-0.2-0.5-0.2-0.7
		c-15.1,11.3-24.7,49.5-1.2,75.7c-8.9-2.6-16.8-6.7-23.8-12.2c-15.2-11.8-25.5-27.1-28.3-46.4c-1.2-8.7-0.9-17.6-0.7-26.5
		c0.3-11.3,1.7-22.4,0.3-33.7c-1.9-15.4-8.9-27.9-20.7-37.8c-22.9-19.2-45.9-38.2-68.8-57.2c-4.1-3.4-7.9-7.2-11.6-11
		c-10.1-10.8-14.9-23.6-15.8-38.4c-0.2-2.7-0.5-5.5-0.7-8.2c-0.9-8.2-4.6-14.9-10.6-20.2c-5.7-4.8-11.6-9.4-17.5-14
		c-6.8-5.3-12.7-11.5-15.1-20c-2.2-7.9-2.1-15.6,0.7-23.3c0.2-0.7,0.5-1.4,0.9-1.9C305.4,399.1,305.6,399.1,305.7,399z"/>
	<path class="st0" d="M265.7,334.1c-26.4-10.1-90.8,8.9-103.3,30.8c11.3,1,22.4,2.9,33.7,6c-34.8,9.4-63.9,27.7-90.6,51
		c1.2-5.7,2.6-11.3,3.4-16.8c1-6.7,2.2-13.5,2.4-20.4c0.2-10.3-5-18-14-22.8c-6.7-3.6-13.9-4.6-21.4-4.8c-10.3-0.3-20.5,1-31,2.6
		c3.8-3.1,7.5-6.3,11.5-9.2c12.5-9.2,26.2-16.3,39.7-23.6c8.2-4.6,16.4-9.6,24.5-14.4c0.7-0.3,1.4-0.9,1.9-1.4
		c7.4-6,8.6-11.3,4.1-19.5c-5.7-10.6-14.4-18.7-23.8-25.9c-2.6-1.9-5.1-3.6-7.7-6c9.4,0.3,18.7,0.3,28.1,1.2
		c9.2,0.9,18.5,2.6,27.9,3.9c-4.8-7.7-7.9-16.6-9.1-26c-1.2-9.4-0.7-18.8,2.1-27.9c0.3,0.2,0.5,0.2,0.5,0.3c7,15.9,18.8,27.7,33,37
		c13.5,8.9,27.6,16.8,41.4,25c10.8,6.5,21.4,13.2,30,22.4c3.6,3.9,6.5,8.4,10.3,13.2c-1.2-3.6-2.1-6.5-3.3-9.2
		c-7.2-15.9-19-27.7-33.4-37.2c-2.2-1.5-3.6-3.3-4.3-5.7c-3.3-11.5-4.1-23.1-3.4-34.8c0.7-14,2.9-27.7,7.9-40.9
		c1.7-4.3,3.6-8.6,6.8-12.2c0.3,5.3,0.5,10.4,1.2,15.4c2.1,13.9,7.9,26,15.8,37.5c11.1,16.3,25.3,29.6,39.7,43
		c14.6,13.5,29.3,26.9,43.7,40.8c7.4,7,13.5,15.2,18.3,24.3c0.2,0.5,0.5,0.9,1.4,1c-0.3-0.9-0.5-1.7-0.9-2.6
		c-5.5-14.4-13.9-26.9-24.5-37.8c-13.2-13.5-27.2-26.2-40.9-39.4c-4.6-4.5-9.1-9.2-13.9-13.7c-2.4-2.4-3.8-5.1-4.3-8.4
		c-3.6-17.1-1.5-33.7,5.8-49.7c0.5-1,1.2-1.9,2.2-2.9c0.2,1.9,0.2,3.8,0.3,5.7c1,17.5,8.2,32.4,18.2,46.2
		c11.6,16.4,26.4,30,40.9,43.7c10.6,9.9,21.4,19.9,31.3,30.5c11.6,12.5,20.5,26.7,25.2,43.3c2.2,8.4,2.9,17,1.7,25.5
		c-0.2,0.9,0.3,2.4,1,2.7c11.3,5.5,13.2,8,14.6,20.2c6.8-0.7,15.4-8,23.5-20.4c3.1,6.8-0.2,29.8-6,44.7c-7,17.6-21.1,34.4-33,39.4
		c0.3-3.1,1-6,1.2-9.1c0.5-15.9-6.5-25.3-21.7-30c-10.4-3.1-21.2-3.9-32.2-3.8c-1,0-2.1,0-3.6,0c0.5-1,1-1.9,1.4-2.7
		c3.1-5.3,5.7-10.8,6.7-17c1.2-6.8-1.4-11-8-12.8c-7.4-2.1-14.9-2.4-22.4-2.2c-19,0.2-37.8,2.7-56.3,7.5c-1.7,0.5-3.6,1-5.3,1.9
		c12.2,0.3,24.3,1.4,35.8,4.8c-2.4,6-5,11.6-6.7,17.5c-1.5,5.1-1.9,10.6-2.6,15.9c-0.2,1.5,0.3,3.3,1,4.6c1.7,4.5,6,6,10.3,4.1
		c1.4-0.7,2.7-1.5,4.1-2.6c1.2-0.9,2.2-2.1,3.4-3.1c-1.2,5.5-2.6,10.8-3.4,16.1c-0.5,3.3-0.9,6.5-0.9,9.8c0,8,3.9,12,12,12
		c3.6,0,7.2-0.5,11.6-1c-2.4,3.6-4.5,7-6.8,10.1c-8.7,10.4-20.2,17.1-32.9,21.6c-6.8,2.4-14,3.6-21.1,5.3c-1.5,0.3-3.3,0.2-5.8,0.3
		c9.4-5.8,16.4-13,21.4-21.9c0.9-1.5,1.4-3.1,2.4-5.3c-9.6,3.3-18.8,4.3-28.3,3.6c0.9-0.7,1.7-1.4,2.6-2.1
		c13.7-11.3,19.5-33.6,12.8-50c-4.6-11.6-13.9-18.5-25.7-21.9c-16.6-4.8-32.7-3.4-47.8,5.5c-0.2,0.2-0.5,0.2-1.4,0.5
		c9.6-22.8,25.5-38.7,47.1-49.3c0-0.3,0-0.5,0.2-0.9c-11.3-2.9-22.6-5.8-34.6-8.7C218.4,341.6,241.3,336.3,265.7,334.1z
		 M310.7,328.6c0.2,0.9,0,1.5,0.3,2.1c2.1,5.5,3.9,11.1,6.5,16.6c2.4,5.1,5.8,9.2,10.6,12.3c5.1,3.3,10.8,5,17.5,4.5
		C338.6,347.4,327.6,335.3,310.7,328.6z"/>
	<path class="st0" d="M195.8,236.8c-14-9.2-27.4-19-34.1-35.4c-6-14.4-12-28.8-18-43.2c-0.3-1-0.9-1.9-1.5-3.6
		c-0.9,2.6-1.4,4.5-2.1,6.3c-4.6,14.4-9.2,28.9-13.7,43.3c-3.3,10.4-4.3,21.2-3.3,32c0.2,1.2,0.2,2.2-0.3,3.8
		c-0.5-0.7-1-1.4-1.5-2.1c-8-13-12.8-27.1-14.7-42.1c-2.6-19.9-1.9-39.6,3.3-58.9c7.5-28.3,23.5-51,45.7-69.7
		C177,49.5,201.5,39,228.8,34.9c30.5-4.5,60.6-3.4,90.1,6.5c47.6,16.1,77.1,49,88,98.1c7,31.3,1.9,61.3-9.8,90.6
		c-6.7,17-15.1,32.9-25.9,47.6c-0.3,0.5-0.9,1-1.7,2.2c-2.1-2.2-3.8-4.5-5.8-6.5c-13.9-13.2-27.9-26.2-41.4-39.6
		c-5.5-5.5-9.9-11.8-14.9-17.8c-1.2-1.5-1.4-2.9-0.5-4.8c8.4-17,12.2-34.8,10.3-53.6c-1.5-15.9-6.5-30.5-18.3-41.8
		c-12.3-12-27.6-16.1-44.2-13.2c-25.2,4.5-39.4,21.2-45.5,45c-1.5,6.2-1.5,12.8-2.2,19.2c-0.2,1.7-0.3,3.4-1,4.8
		c-5.3,13.4-8.2,27.2-9.2,41.4c-0.5,7.5,0,15.2,0,22.9C196.3,236.6,196,236.8,195.8,236.8z"/>
	<path class="st0" d="M623,338.7c-7.2,0-14.6-0.7-21.7,0.2c-48.1,5.3-88.9,26.7-124.5,58.7c-5.1,4.6-9.8,9.9-14.6,14.9
		c0-24.3,54.8-94.3,83-105.5c-2.6,4.1-5.5,7.9-7.7,12c-1.9,3.4-3.6,6.8-4.8,10.6c-1.7,5.3,1.5,8.4,6.7,6.5c3.3-1.2,6.3-2.9,9.1-5
		c9.4-7.4,18.5-15.1,27.9-22.3c12-9.2,24.7-17,39.6-20.5c3.3-0.9,6.5-1.2,9.8-1.7c0,0.2,0.2,0.5,0.2,0.7c-1.5,0.9-3.1,1.5-4.5,2.6
		c-5.5,3.9-11,7.5-16.1,11.8c-1.9,1.5-3.4,3.9-4.3,6.2c-2.1,4.8,1,8.9,6.2,8.2c3.3-0.3,6.5-1.4,9.6-2.4c11-3.4,21.7-7.2,33-8.9
		c14-2.2,28.1-2.1,42.1,0.9c32.9,6.8,60.8,22.9,84.8,46.4c0.5,0.5,1,1,1.4,1.5c0.2,0.2,0.2,0.3,0.2,0.7c-9.6-2.4-19.2-3.1-28.8-2.6
		c-25.3,1.4-49.8,6.5-72.8,17.5c-3.8,1.9-7.2,4.3-10.6,6.5c-1.2,0.9-2.1,1-3.3,0.2c-11.6-8.2-24.8-11.8-39-12.3
		c-26.5-0.9-50.2,7.4-68.7,26.5c-10.4,11-19.5,23.3-28.4,35.4c-16.1,22.3-29.1,46.2-40.8,71.1c-0.3,0.9-0.9,1.5-1.2,2.6
		c-0.7-0.5-1.4-1-2.1-1.4c-8.9-7.4-18-14.6-26.9-21.9c-6-5-12.5-8.9-19.9-11.5c-0.5-0.2-1-0.5-1.9-0.9c0.3-0.5,0.5-1,0.9-1.4
		c23.6-31.3,50.5-59.1,82.5-81.8c23.8-17,49.5-30.3,78.3-36.8C604.7,341.4,614,340.2,623,338.7C623,338.9,623,338.9,623,338.7z"/>
</g>
</svg>
